<mxfile host="app.diagrams.net" agent="Mozilla/5.0 (Windows NT 10.0; Win64; x64) AppleWebKit/537.36 (KHTML, like Gecko) Chrome/130.0.0.0 Safari/537.36 QuarkPC/2.5.0.298" version="26.2.12">
  <diagram name="第 1 页" id="EusF1WJx1OdpRj9fLSZE">
    <mxGraphModel dx="1044" dy="538" grid="1" gridSize="10" guides="1" tooltips="1" connect="1" arrows="1" fold="1" page="1" pageScale="1" pageWidth="827" pageHeight="1169" math="0" shadow="0">
      <root>
        <mxCell id="0" />
        <mxCell id="1" parent="0" />
        <mxCell id="B4I1jJiBlW6cmj81__Au-4" style="edgeStyle=orthogonalEdgeStyle;rounded=0;orthogonalLoop=1;jettySize=auto;html=1;exitX=1;exitY=0.5;exitDx=0;exitDy=0;" edge="1" parent="1" source="B4I1jJiBlW6cmj81__Au-1" target="B4I1jJiBlW6cmj81__Au-2">
          <mxGeometry relative="1" as="geometry" />
        </mxCell>
        <mxCell id="B4I1jJiBlW6cmj81__Au-8" value="不可控调度" style="edgeLabel;html=1;align=center;verticalAlign=middle;resizable=0;points=[];" vertex="1" connectable="0" parent="B4I1jJiBlW6cmj81__Au-4">
          <mxGeometry x="-0.6247" y="-3" relative="1" as="geometry">
            <mxPoint as="offset" />
          </mxGeometry>
        </mxCell>
        <mxCell id="B4I1jJiBlW6cmj81__Au-1" value="线程" style="rounded=1;whiteSpace=wrap;html=1;" vertex="1" parent="1">
          <mxGeometry x="100" y="100" width="120" height="60" as="geometry" />
        </mxCell>
        <mxCell id="B4I1jJiBlW6cmj81__Au-2" value="竞态条件" style="rounded=1;whiteSpace=wrap;html=1;" vertex="1" parent="1">
          <mxGeometry x="390" y="160" width="120" height="60" as="geometry" />
        </mxCell>
        <mxCell id="B4I1jJiBlW6cmj81__Au-5" style="edgeStyle=orthogonalEdgeStyle;rounded=0;orthogonalLoop=1;jettySize=auto;html=1;entryX=0;entryY=0.5;entryDx=0;entryDy=0;" edge="1" parent="1" source="B4I1jJiBlW6cmj81__Au-3" target="B4I1jJiBlW6cmj81__Au-2">
          <mxGeometry relative="1" as="geometry" />
        </mxCell>
        <mxCell id="B4I1jJiBlW6cmj81__Au-9" value="导致" style="edgeLabel;html=1;align=center;verticalAlign=middle;resizable=0;points=[];" vertex="1" connectable="0" parent="B4I1jJiBlW6cmj81__Au-5">
          <mxGeometry x="0.56" y="1" relative="1" as="geometry">
            <mxPoint as="offset" />
          </mxGeometry>
        </mxCell>
        <mxCell id="B4I1jJiBlW6cmj81__Au-3" value="临界区" style="rounded=1;whiteSpace=wrap;html=1;" vertex="1" parent="1">
          <mxGeometry x="100" y="220" width="120" height="60" as="geometry" />
        </mxCell>
        <mxCell id="B4I1jJiBlW6cmj81__Au-12" style="edgeStyle=orthogonalEdgeStyle;rounded=0;orthogonalLoop=1;jettySize=auto;html=1;entryX=0.5;entryY=1;entryDx=0;entryDy=0;" edge="1" parent="1" source="B4I1jJiBlW6cmj81__Au-11" target="B4I1jJiBlW6cmj81__Au-2">
          <mxGeometry relative="1" as="geometry" />
        </mxCell>
        <mxCell id="B4I1jJiBlW6cmj81__Au-13" value="解决" style="edgeLabel;html=1;align=center;verticalAlign=middle;resizable=0;points=[];" vertex="1" connectable="0" parent="B4I1jJiBlW6cmj81__Au-12">
          <mxGeometry x="-0.1938" relative="1" as="geometry">
            <mxPoint y="-8" as="offset" />
          </mxGeometry>
        </mxCell>
        <mxCell id="B4I1jJiBlW6cmj81__Au-11" value="锁" style="rounded=1;whiteSpace=wrap;html=1;" vertex="1" parent="1">
          <mxGeometry x="390" y="350" width="120" height="60" as="geometry" />
        </mxCell>
        <mxCell id="B4I1jJiBlW6cmj81__Au-15" style="edgeStyle=orthogonalEdgeStyle;rounded=0;orthogonalLoop=1;jettySize=auto;html=1;entryX=0;entryY=0.5;entryDx=0;entryDy=0;" edge="1" parent="1" source="B4I1jJiBlW6cmj81__Au-14" target="B4I1jJiBlW6cmj81__Au-11">
          <mxGeometry relative="1" as="geometry" />
        </mxCell>
        <mxCell id="B4I1jJiBlW6cmj81__Au-14" value="硬件帮助实现原子性" style="rounded=1;whiteSpace=wrap;html=1;" vertex="1" parent="1">
          <mxGeometry x="130" y="350" width="120" height="60" as="geometry" />
        </mxCell>
      </root>
    </mxGraphModel>
  </diagram>
</mxfile>
